{
	"asset":{
		"generator":"Khronos glTF Blender I/O v4.5.47",
		"version":"2.0"
	},
	"scene":0,
	"scenes":[
		{
			"name":"Scene",
			"nodes":[
				0
			]
		}
	],
	"nodes":[
		{
			"mesh":0,
			"name":"Cube",
			"scale":[
				1.024999976158142,
				1.024999976158142,
				1.024999976158142
			]
		}
	],
	"materials":[
		{
			"doubleSided":true,
			"emissiveFactor":[
				0.019826991483569145,
				0.01655326783657074,
				0.02500000037252903
			],
			"name":"Material",
			"pbrMetallicRoughness":{
				"baseColorFactor":[
					0,
					0,
					0,
					1
				]
			}
		},
		{
			"doubleSided":true,
			"emissiveFactor":[
				0.30498531460762024,
				0.29613855481147766,
				0.3277782201766968
			],
			"name":"Material.012",
			"pbrMetallicRoughness":{
				"baseColorFactor":[
					0,
					0,
					0,
					1
				]
			}
		}
	],
	"meshes":[
		{
			"name":"Cube.004",
			"primitives":[
				{
					"attributes":{
						"POSITION":0,
						"NORMAL":1,
						"TEXCOORD_0":2,
						"TANGENT":3
					},
					"indices":4,
					"material":0
				},
				{
					"attributes":{
						"POSITION":5,
						"NORMAL":6,
						"TEXCOORD_0":7,
						"TANGENT":8
					},
					"indices":9,
					"material":1
				}
			]
		}
	],
	"accessors":[
		{
			"bufferView":0,
			"componentType":5126,
			"count":323,
			"max":[
				0.5421872735023499,
				0.5421872735023499,
				0.5421270132064819
			],
			"min":[
				-0.5421269536018372,
				-0.5421270132064819,
				-0.5421872735023499
			],
			"type":"VEC3"
		},
		{
			"bufferView":1,
			"componentType":5126,
			"count":323,
			"type":"VEC3"
		},
		{
			"bufferView":2,
			"componentType":5126,
			"count":323,
			"type":"VEC2"
		},
		{
			"bufferView":3,
			"componentType":5126,
			"count":323,
			"type":"VEC4"
		},
		{
			"bufferView":4,
			"componentType":5123,
			"count":1392,
			"type":"SCALAR"
		},
		{
			"bufferView":5,
			"componentType":5126,
			"count":24,
			"max":[
				0.47818127274513245,
				0.47818127274513245,
				0.47809237241744995
			],
			"min":[
				-0.47809237241744995,
				-0.47809237241744995,
				-0.47818127274513245
			],
			"type":"VEC3"
		},
		{
			"bufferView":6,
			"componentType":5126,
			"count":24,
			"type":"VEC3"
		},
		{
			"bufferView":7,
			"componentType":5126,
			"count":24,
			"type":"VEC2"
		},
		{
			"bufferView":8,
			"componentType":5126,
			"count":24,
			"type":"VEC4"
		},
		{
			"bufferView":9,
			"componentType":5123,
			"count":36,
			"type":"SCALAR"
		}
	],
	"bufferViews":[
		{
			"buffer":0,
			"byteLength":3876,
			"byteOffset":0,
			"target":34962
		},
		{
			"buffer":0,
			"byteLength":3876,
			"byteOffset":3876,
			"target":34962
		},
		{
			"buffer":0,
			"byteLength":2584,
			"byteOffset":7752,
			"target":34962
		},
		{
			"buffer":0,
			"byteLength":5168,
			"byteOffset":10336,
			"target":34962
		},
		{
			"buffer":0,
			"byteLength":2784,
			"byteOffset":15504,
			"target":34963
		},
		{
			"buffer":0,
			"byteLength":288,
			"byteOffset":18288,
			"target":34962
		},
		{
			"buffer":0,
			"byteLength":288,
			"byteOffset":18576,
			"target":34962
		},
		{
			"buffer":0,
			"byteLength":192,
			"byteOffset":18864,
			"target":34962
		},
		{
			"buffer":0,
			"byteLength":384,
			"byteOffset":19056,
			"target":34962
		},
		{
			"buffer":0,
			"byteLength":72,
			"byteOffset":19440,
			"target":34963
		}
	],
	"buffers":[
		{
			"byteLength":19512,
			"uri":"PlatformModel-a64c0baf1f054fb8806f28b063277b26.bin"
		}
	]
}
